<svg width="15" height="19" viewBox="0 0 15 19" fill="none" xmlns="http://www.w3.org/2000/svg">
<path d="M7.23999 4.11058C8.02002 4.11058 8.9978 3.56703 9.58008 2.8423C10.1074 2.18551 10.4919 1.26828 10.4919 0.35104C10.4919 0.226477 10.481 0.101915 10.459 0C9.59106 0.0339717 8.54736 0.600166 7.92114 1.35887C7.42676 1.93639 6.97632 2.8423 6.97632 3.77086C6.97632 3.90675 6.99829 4.04263 7.00928 4.08793C7.06421 4.09925 7.1521 4.11058 7.23999 4.11058ZM4.49341 17.8125C5.55908 17.8125 6.03149 17.0764 7.36084 17.0764C8.71216 17.0764 9.00879 17.7899 10.1953 17.7899C11.3599 17.7899 12.1399 16.6801 12.876 15.593C13.7 14.3474 14.0405 13.1244 14.0625 13.0678C13.9856 13.0451 11.7554 12.1053 11.7554 9.46678C11.7554 7.17935 13.5132 6.14888 13.6121 6.06961C12.4475 4.34838 10.6787 4.30308 10.1953 4.30308C8.88794 4.30308 7.82227 5.1184 7.1521 5.1184C6.427 5.1184 5.47119 4.34838 4.3396 4.34838C2.18628 4.34838 0 6.18285 0 9.64796C0 11.7995 0.812988 14.0756 1.81274 15.5477C2.66968 16.7933 3.41675 17.8125 4.49341 17.8125Z" fill="white"/>
</svg>
