<svg width="19" height="19" viewBox="0 0 19 19" fill="none" xmlns="http://www.w3.org/2000/svg">
<path d="M9.5 0C4.26187 0 0 4.26187 0 9.5C0 14.7381 4.26187 19 9.5 19C14.7381 19 19 14.7381 19 9.5C19 4.26187 14.7381 0 9.5 0ZM9.5 1.46154C13.9474 1.46154 17.5385 5.05258 17.5385 9.5C17.5385 13.9474 13.9474 17.5385 9.5 17.5385C5.05258 17.5385 1.46154 13.9474 1.46154 9.5C1.46154 5.05258 5.05258 1.46154 9.5 1.46154ZM6.73678 5.6863L5.6863 6.73678L8.44952 9.5L5.6863 12.2632L6.73678 13.3137L9.5 10.5505L12.2632 13.3137L13.3137 12.2632L10.5505 9.5L13.3137 6.73678L12.2632 5.6863L9.5 8.44952L6.73678 5.6863Z" fill="black"/>
</svg>
