<svg width="28" height="8" viewBox="0 0 28 8" fill="none" xmlns="http://www.w3.org/2000/svg">
<path id="Vector" d="M11.8787 2.99595L3.68331 3.00303L4.80761 1.87873C4.99515 1.69119 5.10051 1.43683 5.10051 1.17162C5.10051 0.906402 4.99515 0.652048 4.80761 0.464512C4.62008 0.276975 4.36572 0.171618 4.10051 0.171618C3.83529 0.171618 3.58094 0.276975 3.3934 0.464512L0.564971 3.29294C0.473685 3.38646 0.401617 3.49696 0.35284 3.61821C0.251813 3.86274 0.251812 4.13735 0.352839 4.38188C0.401616 4.50313 0.473685 4.61363 0.564971 4.70715L3.3934 7.53558C3.58093 7.72312 3.83529 7.82847 4.1005 7.82847C4.36572 7.82847 4.62008 7.72312 4.80761 7.53558C4.99515 7.34804 5.10051 7.09369 5.10051 6.82847C5.10051 6.56326 4.99515 6.3089 4.80761 6.12137L3.68331 4.99707L11.8787 5.00414C12.145 5.00414 12.4004 4.89835 12.5887 4.71005C12.777 4.52174 12.8828 4.26635 12.8828 4.00005C12.8828 3.73374 12.777 3.47835 12.5887 3.29005C12.4004 3.10174 12.145 2.99595 11.8787 2.99595ZM27.6472 4.38188C27.7482 4.13735 27.7482 3.86274 27.6472 3.61821C27.5984 3.49696 27.5263 3.38646 27.435 3.29294L24.6066 0.464512C24.4191 0.276975 24.1647 0.171618 23.8995 0.171618C23.6343 0.171618 23.3799 0.276975 23.1924 0.464512C23.0049 0.652048 22.8995 0.906402 22.8995 1.17162C22.8995 1.43683 23.0049 1.69119 23.1924 1.87873L24.3167 3.00303L16.1213 2.99595C15.9893 2.99541 15.8585 3.02102 15.7364 3.07128C15.6144 3.12155 15.5035 3.19549 15.4101 3.28884C15.3168 3.38218 15.2428 3.49309 15.1926 3.61516C15.1423 3.73722 15.1167 3.86803 15.1172 4.00005C15.1167 4.13206 15.1423 4.26287 15.1926 4.38493C15.2428 4.507 15.3168 4.61791 15.4101 4.71125C15.5035 4.8046 15.6144 4.87854 15.7364 4.92881C15.8585 4.97908 15.9893 5.00468 16.1213 5.00414L24.3167 4.99707L23.1924 6.12137C23.0049 6.3089 22.8995 6.56326 22.8995 6.82847C22.8995 7.09369 23.0049 7.34804 23.1924 7.53558C23.3799 7.72312 23.6343 7.82847 23.8995 7.82847C24.1647 7.82847 24.4191 7.72312 24.6066 7.53558L27.435 4.70715C27.5263 4.61363 27.5984 4.50313 27.6472 4.38188Z" fill="#7E7D81"/>
</svg>
