<svg width="24" height="24" viewBox="0 0 24 24" fill="none" xmlns="http://www.w3.org/2000/svg">
<path d="M12 4C14.7867 4 17.2628 5.25676 19.0257 6.81276C19.9108 7.59401 20.6403 8.47094 21.1544 9.34416C21.6593 10.2015 22 11.1299 22 12C22 12.8701 21.6593 13.7985 21.1544 14.6558C20.6403 15.5291 19.9108 16.406 19.0257 17.1872C17.2628 18.7432 14.7867 20 12 20C9.21333 20 6.73725 18.7432 4.97431 17.1872C4.08915 16.406 3.35973 15.5291 2.84556 14.6558C2.34075 13.7985 2 12.8701 2 12C2 11.1299 2.34075 10.2015 2.84556 9.34416C3.35973 8.47094 4.08915 7.59401 4.97431 6.81276C6.73725 5.25676 9.21333 4 12 4ZM12 6C9.81611 6 7.79219 6.99324 6.29777 8.31224C5.55424 8.96849 4.96565 9.68531 4.56897 10.359C4.16293 11.0485 4 11.6201 4 12C4 12.3799 4.16293 12.9515 4.56897 13.641C4.96565 14.3147 5.55424 15.0315 6.29777 15.6878C7.79219 17.0068 9.81611 18 12 18C14.1839 18 16.2078 17.0068 17.7022 15.6878C18.4458 15.0315 19.0344 14.3147 19.431 13.641C19.8371 12.9515 20 12.3799 20 12C20 11.6201 19.8371 11.0485 19.431 10.359C19.0344 9.68531 18.4458 8.96849 17.7022 8.31224C16.2078 6.99324 14.1839 6 12 6ZM12 9C12.088 9 12.1751 9.00379 12.2611 9.01121C12.0949 9.30283 12 9.64033 12 10C12 11.1046 12.8954 12 14 12C14.3597 12 14.6972 11.9051 14.9888 11.7389C14.9962 11.8249 15 11.912 15 12C15 13.6569 13.6569 15 12 15C10.3431 15 9 13.6569 9 12C9 10.3431 10.3431 9 12 9Z" fill="#0E0C22"/>
</svg>
