<svg width="128" height="20" viewBox="0 0 128 20" fill="none" xmlns="http://www.w3.org/2000/svg">
<path d="M0.723633 13.0713H4.65918C4.7015 13.8161 5.01042 14.4212 5.58594 14.8867C6.16146 15.3438 6.9528 15.5723 7.95996 15.5723C8.81478 15.5723 9.4834 15.4157 9.96582 15.1025C10.4482 14.7809 10.6895 14.3366 10.6895 13.7695C10.6895 13.4141 10.5794 13.1136 10.3594 12.8682C10.1478 12.6143 9.85579 12.4196 9.4834 12.2842C9.11947 12.1403 8.70052 12.0133 8.22656 11.9033C7.7526 11.7933 7.25326 11.6833 6.72852 11.5732C6.20378 11.4548 5.67904 11.3193 5.1543 11.167C4.62956 11.0146 4.13021 10.8031 3.65625 10.5322C3.18229 10.2614 2.75911 9.93555 2.38672 9.55469C2.02279 9.17383 1.73079 8.67448 1.51074 8.05664C1.29915 7.43034 1.19336 6.7194 1.19336 5.92383C1.19336 4.34961 1.77734 3.04622 2.94531 2.01367C4.11328 0.98112 5.71289 0.464844 7.74414 0.464844C9.70768 0.464844 11.3073 0.964193 12.543 1.96289C13.7786 2.95312 14.4346 4.38346 14.5107 6.25391H10.3975C10.3805 5.61914 10.1393 5.1071 9.67383 4.71777C9.2168 4.32845 8.57357 4.13379 7.74414 4.13379C6.96549 4.13379 6.36458 4.29036 5.94141 4.60352C5.51823 4.91667 5.30664 5.32292 5.30664 5.82227C5.30664 6.16081 5.41667 6.44857 5.63672 6.68555C5.85677 6.92253 6.15299 7.10872 6.52539 7.24414C6.89779 7.37956 7.3252 7.49805 7.80762 7.59961C8.2985 7.70117 8.81055 7.80697 9.34375 7.91699C9.87695 8.02702 10.4102 8.1582 10.9434 8.31055C11.4766 8.45443 11.9844 8.66178 12.4668 8.93262C12.9577 9.20345 13.3893 9.52507 13.7617 9.89746C14.1341 10.2699 14.4303 10.7607 14.6504 11.3701C14.8704 11.9795 14.9805 12.6777 14.9805 13.4648C14.9805 15.1999 14.3457 16.6133 13.0762 17.7051C11.8066 18.7969 10.0547 19.3428 7.82031 19.3428C5.62826 19.3512 3.89323 18.7799 2.61523 17.6289C1.35417 16.4948 0.723633 15.001 0.723633 13.1475C0.723633 13.1221 0.723633 13.0967 0.723633 13.0713ZM18.1284 19V0.794922H22.2417V7.84082H29.4907V0.794922H33.6294V19H29.4907V11.8018H22.2417V19H18.1284ZM36.9677 9.89746C36.9677 8.57715 37.2132 7.33724 37.7041 6.17773C38.1949 5.00977 38.8636 4.00684 39.7099 3.16895C40.5647 2.33105 41.5888 1.6709 42.7822 1.18848C43.984 0.706055 45.2705 0.464844 46.6416 0.464844C48.0042 0.464844 49.2864 0.710286 50.4882 1.20117C51.6901 1.68359 52.7142 2.34375 53.5605 3.18164C54.4153 4.01953 55.0882 5.02246 55.5791 6.19043C56.0699 7.34993 56.3154 8.58561 56.3154 9.89746C56.3154 11.6494 55.8964 13.249 55.0586 14.6963C54.2207 16.1351 53.0612 17.2692 51.58 18.0986C50.1074 18.9281 48.4612 19.3428 46.6416 19.3428C45.2705 19.3428 43.984 19.1016 42.7822 18.6191C41.5804 18.1367 40.552 17.4808 39.6972 16.6514C38.8509 15.8135 38.1823 14.8105 37.6914 13.6426C37.2089 12.4746 36.9677 11.2262 36.9677 9.89746ZM41.2334 9.89746C41.2334 11.4801 41.7369 12.792 42.7441 13.833C43.7597 14.8656 45.0589 15.3818 46.6416 15.3818C48.2073 15.3818 49.4938 14.8656 50.5009 13.833C51.5166 12.792 52.0244 11.4801 52.0244 9.89746C52.0244 8.33171 51.5166 7.02832 50.5009 5.9873C49.4938 4.93783 48.2073 4.41309 46.6416 4.41309C45.0673 4.41309 43.7724 4.93783 42.7568 5.9873C41.7412 7.02832 41.2334 8.33171 41.2334 9.89746ZM59.6411 19V0.794922H66.687C68.5066 0.794922 70.0174 1.36621 71.2192 2.50879C72.4295 3.6429 73.0346 5.10286 73.0346 6.88867C73.0346 8.05664 72.7469 9.11035 72.1713 10.0498C71.6043 10.9893 70.8383 11.7214 69.8735 12.2461C68.9086 12.7624 67.8465 13.0205 66.687 13.0205H63.7543V19H59.6411ZM63.7543 9.54199H66.2807C67.0255 9.54199 67.6391 9.29655 68.1215 8.80566C68.6039 8.31478 68.8452 7.67578 68.8452 6.88867C68.8452 6.11003 68.6039 5.48796 68.1215 5.02246C67.6476 4.5485 67.034 4.31152 66.2807 4.31152H63.7543V9.54199ZM73.0087 19L79.1913 0.794922H84.4472L90.706 19H86.3388L85.247 15.7754H78.2773L77.2109 19H73.0087ZM79.3945 12.1064H84.1298L81.8954 5.32715H81.6669L79.3945 12.1064ZM91.8227 19L97.3959 9.66895L92.1146 0.794922H96.7484L99.935 6.36816H100.1L103.299 0.794922H107.946L102.614 9.66895L108.212 19H103.477L100.1 12.8936H99.935L96.5326 19H91.8227ZM109.646 19L115.829 0.794922H121.085L127.344 19H122.976L121.885 15.7754H114.915L113.849 19H109.646ZM116.032 12.1064H120.767L118.533 5.32715H118.305L116.032 12.1064Z" fill="black"/>
</svg>
